Coordinates
version=1
nRows=6
nColumns=46
inDegrees=yes

Units are S.I. units (second, meters, Newtons, ...)
Angles are in degrees.

endheader
time	pelvis_tilt	pelvis_list	pelvis_rotation	pelvis_tx	pelvis_ty	pelvis_tz	bb_angle	bb_tx	bb_ty	bb_tz	hip_flexion_r	hip_adduction_r	hip_rotation_r	knee_angle_r	knee_angle_r_beta	ankle_angle_r	subtalar_angle_r	mtp_angle_r	crank_angle_r	hip_flexion_l	hip_adduction_l	hip_rotation_l	knee_angle_l	knee_angle_l_beta	ankle_angle_l	subtalar_angle_l	mtp_angle_l	crank_angle_l	lumbar_extension	lumbar_bending	lumbar_rotation	arm_flex_r	arm_add_r	arm_rot_r	elbow_flex_r	pro_sup_r	wrist_flex_r	wrist_dev_r	arm_flex_l	arm_add_l	arm_rot_l	elbow_flex_l	pro_sup_l	wrist_flex_l	wrist_dev_l
      7.50500000	    -24.86097103	      5.73843262	     -6.44452531	      0.47305137	      1.18538008	     -0.20572420	      0.00000000	      0.50000000	      0.00000000	      0.25000000	     55.07115974	     -1.95382090	      9.59435422	     59.76187473	      1.04304148	     10.70796606	     -8.98059239	      0.00000000	      0.00000000	     37.27083654	     -0.94428926	      0.38625378	     58.82962844	      1.02677071	    -30.93194720	     -6.70059249	      0.00000000	      0.00000000	    -58.66332973	     -7.51475983	      7.10135525	     39.02855336	    -46.05398294	     34.91137834	     94.10766962	     58.69242317	      0.00000000	      0.00000000	     49.29236641	    -16.52576462	     32.98003384	     72.54499396	     52.39245249	      0.00000000	      0.00000000
      7.51000000	    -24.62114762	      6.52118364	     -6.25830678	      0.47301700	      1.18533111	     -0.20492102	      0.00000000	      0.50000000	      0.00000000	      0.25000000	     53.59007931	     -2.67554911	     10.14699556	     57.09576252	      0.99650904	      8.98599429	     -9.67537645	      0.00000000	      0.00000000	     38.23093846	     -0.07065641	      0.30197339	     61.27388000	      1.06943095	    -30.26077736	     -7.14103472	      0.00000000	      0.00000000	    -58.77659320	     -8.47174642	      7.67446175	     34.81757615	    -45.81323224	     29.58467142	     94.87606633	     58.36898125	      0.00000000	      0.00000000	     51.01483930	    -14.83382949	     34.28741829	     69.86576298	     52.24362474	      0.00000000	      0.00000000
      7.51500000	    -24.40626265	      7.37630227	     -6.03754246	      0.47296085	      1.18491465	     -0.20477556	      0.00000000	      0.50000000	      0.00000000	      0.25000000	     52.13734250	     -3.60835353	     10.73153478	     54.46127633	      0.95052859	      7.64566420	     -9.34402335	      0.00000000	      0.00000000	     39.22034784	      0.91848382	      0.11964887	     63.70659480	      1.11188983	    -29.34091593	     -7.68217001	      0.00000000	      0.00000000	    -58.91116362	     -9.17973376	      6.75645919	     34.57857479	    -45.73433170	     29.49571151	     94.72181277	     58.34061635	      0.00000000	      0.00000000	     51.22861544	    -14.68606709	     34.33064752	     69.81522297	     52.24086394	      0.00000000	      0.00000000
      7.52000000	    -24.29001385	      7.99491166	     -5.62626028	      0.47255035	      1.18416942	     -0.20459493	      0.00000000	      0.50000000	      0.00000000	      0.25000000	     50.62941976	     -4.35996412	     11.20569172	     51.70925269	      0.90249671	      5.73997886	    -10.29272191	      0.00000000	      0.00000000	     40.40543321	      1.72281661	      0.14774804	     66.26322448	      1.15651144	    -28.22871786	     -7.97569380	      0.00000000	      0.00000000	    -58.90140014	     -9.59798427	      5.83480528	     34.19448080	    -44.85016214	     28.75558645	     94.13417527	     58.17794043	      0.00000000	      0.00000000	     51.48324866	    -14.67214512	     34.45994950	     69.55007471	     52.23046173	      0.00000000	      0.00000000
      7.52500000	    -24.36117185	      8.61599066	     -5.19846059	      0.47201090	      1.18277630	     -0.20446591	      0.00000000	      0.50000000	      0.00000000	      0.25000000	     49.34678461	     -5.17365170	     11.57780216	     49.05394041	      0.85615277	      4.04786120	    -10.58671377	      0.00000000	      0.00000000	     41.84058573	      2.47689528	      0.13951669	     68.89576772	      1.20245799	    -26.89910315	     -8.14227878	      0.00000000	      0.00000000	    -58.68040025	    -10.12686575	      5.03718950	     33.49076689	    -44.21494234	     27.90372452	     93.62737163	     58.03127467	      0.00000000	      0.00000000	     51.66231888	    -14.61263820	     34.67794738	     69.51769370	     52.27232325	      0.00000000	      0.00000000
      7.53000000	    -24.37755135	      9.33876425	     -4.72667729	      0.47135434	      1.18135934	     -0.20452477	      0.00000000	      0.50000000	      0.00000000	      0.25000000	     48.00431706	     -6.11537840	     11.95832723	     46.47865255	      0.81120552	      2.60915681	    -10.65762472	      0.00000000	      0.00000000	     43.21610392	      3.42047558	      0.11468009	     71.43096799	      1.24670558	    -25.63136920	     -8.61536531	      0.00000000	      0.00000000	    -58.54739927	    -10.62032899	      4.10799989	     33.01566804	    -44.04047781	     27.63338044	     93.44271502	     57.98754275	      0.00000000	      0.00000000	     51.80830017	    -14.62460272	     34.79143374	     69.52150941	     52.29263181	      0.00000000	      0.00000000
